{
  "asset": {
    "generator": "u3d-exporter",
    "version": "1.0.0"
  },
  "accessors": [
    {
      "name": "position@transformZed",
      "bufferView": 0,
      "byteOffset": 0,
      "componentType": 5126,
      "count": 8998,
      "type": "VEC3",
      "min": [
        -0.893145,
        -0.00593091,
        -0.3681195
      ],
      "max": [
        0.8784358,
        2.06285787,
        0.440551341
      ]
    },
    {
      "name": "normal@transformZed",
      "bufferView": 0,
      "byteOffset": 12,
      "componentType": 5126,
      "count": 8998,
      "type": "VEC3"
    },
    {
      "name": "tangent@transformZed",
      "bufferView": 0,
      "byteOffset": 24,
      "componentType": 5126,
      "count": 8998,
      "type": "VEC4"
    },
    {
      "name": "uv0@transformZed",
      "bufferView": 0,
      "byteOffset": 40,
      "componentType": 5126,
      "count": 8998,
      "type": "VEC2"
    },
    {
      "name": "joints@transformZed",
      "bufferView": 0,
      "byteOffset": 48,
      "componentType": 5123,
      "count": 8998,
      "type": "VEC4"
    },
    {
      "name": "weights@transformZed",
      "bufferView": 0,
      "byteOffset": 56,
      "componentType": 5126,
      "count": 8998,
      "type": "VEC4"
    },
    {
      "name": "indices0@transformZed",
      "bufferView": 1,
      "byteOffset": 0,
      "componentType": 5123,
      "count": 26109,
      "type": "SCALAR"
    },
    {
      "name": "bindposes@transformZed",
      "bufferView": 2,
      "byteOffset": 0,
      "componentType": 5126,
      "count": 69,
      "type": "MAT4"
    }
  ],
  "buffers": [
    {
      "name": "Zed",
      "uri": "cc6b438d631553f468aac60d3bd4d450.bin",
      "byteLength": 704492
    }
  ],
  "bufferViews": [
    {
      "name": "vb@transformZed",
      "buffer": 0,
      "byteOffset": 0,
      "byteLength": 647856,
      "byteStride": 72,
      "target": 34962
    },
    {
      "name": "ib0@transformZed",
      "buffer": 0,
      "byteOffset": 647856,
      "byteLength": 52218,
      "target": 34963
    },
    {
      "name": "bp@transformZed",
      "buffer": 0,
      "byteOffset": 700076,
      "byteLength": 4416
    }
  ],
  "meshes": [
    {
      "name": "transformZed",
      "primitives": [
        {
          "attributes": {
            "POSITION": 0,
            "NORMAL": 1,
            "TANGENT": 2,
            "TEXCOORD_0": 3,
            "JOINTS_0": 4,
            "WEIGHTS_0": 5
          },
          "indices": 6
        }
      ]
    }
  ],
  "nodes": [
    {
      "name": "Zed",
      "children": [
        1
      ]
    },
    {
      "name": "transformZed",
      "mesh": 0,
      "skin": 0
    }
  ],
  "joints": [
    {
      "name": "Zed",
      "children": [
        1,
        2,
        3,
        4,
        5,
        6
      ]
    },
    {
      "name": "Buffbone_Glb_Channel_Loc",
      "translation": [
        -2.07484845E-06,
        1.0,
        -0.5
      ],
      "rotation": [
        0.707106769,
        0.0,
        0.0,
        0.7071068
      ]
    },
    {
      "name": "Buffbone_Glb_Ground_Loc",
      "rotation": [
        -6.123234E-17,
        -1.0,
        -6.123234E-17,
        -6.123234E-17
      ]
    },
    {
      "name": "C_Buffbone_Glb_Center_Loc",
      "translation": [
        -2.07484845E-06,
        1.1,
        0.0151766986
      ]
    },
    {
      "name": "C_Buffbone_Glb_Layout_Loc",
      "rotation": [
        -6.123234E-17,
        -1.0,
        -6.123234E-17,
        -6.123234E-17
      ]
    },
    {
      "name": "C_Buffbone_Glb_Overhead_Loc",
      "translation": [
        -2.07484845E-06,
        2.640285,
        -7.105428E-18
      ]
    },
    {
      "name": "Root",
      "children": [
        7,
        29
      ],
      "translation": [
        0.0,
        1.27246261,
        0.0
      ],
      "rotation": [
        -6.123234E-17,
        -1.0,
        -6.123234E-17,
        -6.123234E-17
      ]
    },
    {
      "name": "Root_lower",
      "children": [
        8,
        9,
        10,
        16,
        23
      ],
      "translation": [
        2.07484823E-06,
        -0.007027435,
        -0.0381164
      ],
      "rotation": [
        -6.123234E-17,
        -1.0,
        -6.123234E-17,
        -6.123234E-17
      ]
    },
    {
      "name": "B_Cloth",
      "translation": [
        -0.003991078,
        -0.008644028,
        0.135918677
      ],
      "rotation": [
        0.5,
        -0.5,
        -0.5,
        0.5
      ]
    },
    {
      "name": "F_Cloth",
      "translation": [
        -0.003991078,
        -0.009251098,
        -0.111979447
      ],
      "rotation": [
        0.5,
        -0.5,
        -0.5,
        0.5
      ]
    },
    {
      "name": "L_Hip",
      "children": [
        11
      ],
      "translation": [
        -0.09886225,
        -0.0668528751,
        0.01517668
      ],
      "rotation": [
        -0.5043442,
        -0.495617747,
        0.4956177,
        0.5043442
      ]
    },
    {
      "name": "L_KneeUpper",
      "children": [
        12
      ],
      "translation": [
        -0.51,
        5.59563862E-09,
        -9.536743E-09
      ]
    },
    {
      "name": "L_KneeLower",
      "children": [
        13,
        14
      ],
      "translation": [
        7.62939436E-08,
        8.27267255E-10,
        0.0
      ],
      "rotation": [
        0.0,
        0.0,
        0.05233605,
        0.9986295
      ]
    },
    {
      "name": "L_Buffbone_Glb_Foot_Loc",
      "translation": [
        -0.3224002,
        4.76837148E-09,
        0.0
      ]
    },
    {
      "name": "L_Foot",
      "children": [
        15
      ],
      "translation": [
        -0.5532978,
        0.0,
        0.0
      ],
      "rotation": [
        0.0,
        0.0,
        -4.09781933E-08,
        1.0
      ]
    },
    {
      "name": "L_Toe",
      "translation": [
        -0.09657067,
        0.168327153,
        9.536743E-09
      ],
      "rotation": [
        -0.0009133886,
        0.02091965,
        0.043609824,
        0.9988292
      ]
    },
    {
      "name": "R_Cloth_1",
      "children": [
        17,
        21,
        22
      ],
      "translation": [
        0.159339279,
        0.03182579,
        0.0151766939
      ],
      "rotation": [
        -0.7771444,
        0.62932235,
        -3.02886074E-05,
        -3.3769953E-05
      ]
    },
    {
      "name": "R_Cloth_2",
      "children": [
        18,
        19,
        20
      ],
      "translation": [
        0.221983716,
        -1.14440915E-07,
        -1.862645E-10
      ]
    },
    {
      "name": "R_Cloth_3",
      "translation": [
        0.177459791,
        0.0,
        -5.569309E-09
      ]
    },
    {
      "name": "R_Cloth_B_2",
      "translation": [
        0.0833802745,
        0.0318529867,
        -0.08694906
      ],
      "rotation": [
        0.103553392,
        0.6035534,
        -0.07945933,
        0.786566138
      ]
    },
    {
      "name": "R_Cloth_F_2",
      "translation": [
        0.08336494,
        0.03185051,
        0.08405349
      ],
      "rotation": [
        -0.103553385,
        -0.6035534,
        -0.07945932,
        0.786566138
      ]
    },
    {
      "name": "R_Cloth_B_1",
      "translation": [
        0.144200742,
        0.04263916,
        -0.07213461
      ],
      "rotation": [
        0.103553392,
        0.6035534,
        -0.07945933,
        0.786566138
      ]
    },
    {
      "name": "R_Cloth_F_1",
      "translation": [
        0.144185483,
        0.04263672,
        0.0988679454
      ],
      "rotation": [
        -0.103553385,
        -0.6035534,
        -0.07945932,
        0.786566138
      ]
    },
    {
      "name": "R_Hip",
      "children": [
        24
      ],
      "translation": [
        0.09886227,
        -0.06685524,
        0.0151766939
      ],
      "rotation": [
        0.504323065,
        -0.49564597,
        -0.495592028,
        0.5043628
      ]
    },
    {
      "name": "R_KneeUpper",
      "children": [
        25
      ],
      "translation": [
        0.5099976,
        -1.04308129E-09,
        0.0
      ]
    },
    {
      "name": "R_KneeLower",
      "children": [
        26,
        27
      ],
      "translation": [
        7.62939436E-08,
        3.7252903E-09,
        0.0
      ],
      "rotation": [
        0.0,
        0.0,
        0.0522464477,
        0.9986342
      ]
    },
    {
      "name": "R_Buffbone_Glb_Foot_Loc",
      "translation": [
        0.322399944,
        2.86102289E-08,
        -1.7166137E-07
      ]
    },
    {
      "name": "R_Foot",
      "children": [
        28
      ],
      "translation": [
        0.5532977,
        -3.57627861E-09,
        -9.536743E-09
      ],
      "rotation": [
        7.1702425E-06,
        2.03099785E-06,
        3.11397E-05,
        1.0
      ]
    },
    {
      "name": "R_Toe",
      "translation": [
        0.0965707749,
        -0.1683267,
        -7.534027E-07
      ],
      "rotation": [
        -0.0009219187,
        0.0209207777,
        0.0436180048,
        0.9988288
      ]
    },
    {
      "name": "RootUpper",
      "children": [
        30
      ],
      "translation": [
        2.07484823E-06,
        -0.007027435,
        -0.0381164
      ],
      "rotation": [
        -6.123234E-17,
        -1.0,
        -6.123234E-17,
        -6.123234E-17
      ]
    },
    {
      "name": "Spine1",
      "children": [
        31
      ],
      "translation": [
        0.0,
        0.0514577478,
        0.004802606
      ]
    },
    {
      "name": "Spine2",
      "children": [
        32
      ],
      "translation": [
        0.0,
        0.102120206,
        0.006747303
      ]
    },
    {
      "name": "Spine3",
      "children": [
        33,
        34,
        58,
        61
      ],
      "translation": [
        0.0,
        0.125582576,
        0.010218339
      ]
    },
    {
      "name": "C_Buffbone_Glb_Chest_Loc",
      "rotation": [
        -6.123234E-17,
        -1.0,
        -6.123234E-17,
        -6.123234E-17
      ]
    },
    {
      "name": "L_Clavicle",
      "children": [
        35,
        36,
        38,
        56,
        57
      ],
      "translation": [
        -0.0360675566,
        0.103318326,
        0.005145588
      ]
    },
    {
      "name": "L_FrontShoulderCloth",
      "translation": [
        -0.250450879,
        -0.06228134,
        -0.0417717
      ],
      "rotation": [
        -6.123234E-17,
        -1.0,
        -6.123234E-17,
        -6.123234E-17
      ]
    },
    {
      "name": "L_RearShoulderCloth",
      "children": [
        37
      ],
      "translation": [
        -0.202401161,
        -0.06228134,
        0.20150584
      ],
      "rotation": [
        -6.123234E-17,
        -1.0,
        -6.123234E-17,
        -6.123234E-17
      ]
    },
    {
      "name": "L_RearShoulderCloth2",
      "translation": [
        0.0,
        -0.134490654,
        -5.84084936E-17
      ]
    },
    {
      "name": "L_Shoulder",
      "children": [
        39
      ],
      "translation": [
        -0.2567055,
        0.01210968,
        0.06673254
      ],
      "rotation": [
        -0.07680152,
        -0.0439232327,
        0.494034261,
        0.8649292
      ]
    },
    {
      "name": "L_Elbow",
      "children": [
        40,
        41,
        52
      ],
      "translation": [
        -0.3177101,
        -1.52587887E-07,
        1.90734859E-08
      ],
      "rotation": [
        -3.822977E-09,
        -0.190808833,
        -1.966753E-08,
        0.9816272
      ]
    },
    {
      "name": "L_Buffbone_Glb_Hand_Loc",
      "translation": [
        -0.1452491,
        -7.62939436E-08,
        -4.7683713E-08
      ]
    },
    {
      "name": "L_Hand",
      "children": [
        42,
        44,
        46,
        48,
        50
      ],
      "translation": [
        -0.3580333,
        -1.52587887E-07,
        -6.198883E-08
      ],
      "rotation": [
        -0.0151483044,
        3.15940974E-06,
        -0.000242520036,
        0.999885261
      ]
    },
    {
      "name": "L_Index1",
      "children": [
        43
      ],
      "translation": [
        -0.153832242,
        -0.0216336064,
        -0.0704312
      ],
      "rotation": [
        -0.07892649,
        -0.09406091,
        0.07892647,
        0.9892895
      ]
    },
    {
      "name": "L_Index2",
      "translation": [
        -0.06038864,
        -7.62939436E-08,
        -4.29153424E-08
      ],
      "rotation": [
        -1.49011647E-08,
        0.0,
        0.0,
        1.0
      ]
    },
    {
      "name": "L_Middle1",
      "children": [
        45
      ],
      "translation": [
        -0.166663587,
        -0.0102388766,
        -0.0309511367
      ],
      "rotation": [
        -0.0796872,
        -0.06279744,
        0.1221802,
        0.987308741
      ]
    },
    {
      "name": "L_Middle2",
      "translation": [
        -0.0613034032,
        7.62939436E-08,
        -2.86102289E-08
      ]
    },
    {
      "name": "L_Pinky1",
      "children": [
        47
      ],
      "translation": [
        -0.133219063,
        -0.0221604146,
        0.0428988077
      ],
      "rotation": [
        0.116213739,
        0.118681736,
        0.106622815,
        0.980326831
      ]
    },
    {
      "name": "L_Pinky2",
      "translation": [
        -0.05290138,
        0.0,
        -9.536743E-09
      ],
      "rotation": [
        0.0,
        0.0,
        -1.48429553E-08,
        1.0
      ]
    },
    {
      "name": "L_Ring1",
      "children": [
        49
      ],
      "translation": [
        -0.155649185,
        -0.015152893,
        0.00508003961
      ],
      "rotation": [
        -0.008187147,
        0.0516916141,
        0.156220064,
        0.986334741
      ]
    },
    {
      "name": "L_Ring2",
      "translation": [
        -0.0616719052,
        7.62939436E-08,
        0.0
      ]
    },
    {
      "name": "L_Thumb1",
      "children": [
        51
      ],
      "translation": [
        -0.0457183048,
        -0.01874733,
        -0.0440983661
      ],
      "rotation": [
        -0.4005195,
        -0.5305539,
        0.05880528,
        0.744740665
      ]
    },
    {
      "name": "L_Thumb2",
      "translation": [
        -0.06288048,
        7.62939436E-08,
        9.536743E-09
      ],
      "rotation": [
        0.0,
        0.0,
        0.173648134,
        0.9848078
      ]
    },
    {
      "name": "L_ShurikenHouseing",
      "children": [
        53,
        54
      ],
      "translation": [
        -0.2462976,
        -1.52587887E-07,
        -5.72204577E-08
      ]
    },
    {
      "name": "L_Arm_blade1",
      "translation": [
        0.0514363833,
        0.050274048,
        0.01617443
      ]
    },
    {
      "name": "L_Hand_blade1",
      "children": [
        55
      ],
      "translation": [
        -0.201451138,
        0.0021844483,
        -0.006232767
      ],
      "rotation": [
        0.00114180765,
        -0.0261520445,
        0.04360444,
        0.9987059
      ]
    },
    {
      "name": "L_Hand_blade2",
      "translation": [
        -0.22296901,
        -7.62939436E-08,
        -2.86102289E-08
      ],
      "rotation": [
        0.0,
        2.23517436E-08,
        0.0,
        1.0
      ]
    },
    {
      "name": "L_ShoulderPad",
      "translation": [
        -0.175789759,
        0.1134494,
        0.07548832
      ],
      "rotation": [
        -6.123234E-17,
        -1.0,
        -6.123234E-17,
        -6.123234E-17
      ]
    },
    {
      "name": "L_Shuriken",
      "translation": [
        -0.235692933,
        0.06309097,
        0.230074063
      ]
    },
    {
      "name": "Neck",
      "children": [
        59
      ],
      "translation": [
        -6.80214729E-09,
        0.249101713,
        0.0320627242
      ]
    },
    {
      "name": "Head",
      "children": [
        60
      ],
      "translation": [
        6.80214729E-09,
        0.135465384,
        0.0236333739
      ]
    },
    {
      "name": "C_Buffbone_Glb_Head_Loc",
      "rotation": [
        -6.123234E-17,
        -1.0,
        -6.123234E-17,
        -6.123234E-17
      ]
    },
    {
      "name": "R_Clavicle",
      "children": [
        62,
        63,
        65,
        83,
        84
      ],
      "translation": [
        0.0341703966,
        0.103314206,
        0.005145545
      ],
      "rotation": [
        -1.0,
        0.0,
        0.0,
        -6.123234E-17
      ]
    },
    {
      "name": "R_FrontShoulderCloth",
      "translation": [
        0.250455171,
        0.0622799657,
        0.0417717
      ],
      "rotation": [
        -6.123234E-17,
        -1.0,
        -6.123234E-17,
        -6.123234E-17
      ]
    },
    {
      "name": "R_RearShoulderCloth",
      "children": [
        64
      ],
      "translation": [
        0.202405185,
        0.0622799657,
        -0.2015058
      ],
      "rotation": [
        -6.123234E-17,
        -1.0,
        -6.123234E-17,
        -6.123234E-17
      ]
    },
    {
      "name": "R_RearShoulderCloth2",
      "translation": [
        0.0,
        0.134490818,
        1.77713283E-16
      ]
    },
    {
      "name": "R_Shoulder",
      "children": [
        66
      ],
      "translation": [
        0.2567052,
        -0.0121099846,
        -0.066732794
      ],
      "rotation": [
        -0.07744767,
        -0.0443073176,
        0.493863285,
        0.8649496
      ]
    },
    {
      "name": "R_Elbow",
      "children": [
        67,
        68,
        79
      ],
      "translation": [
        0.3177031,
        0.0,
        1.90734859E-08
      ],
      "rotation": [
        0.0,
        -0.190809622,
        0.0,
        0.9816271
      ]
    },
    {
      "name": "R_Buffbone_Glb_Hand_Loc",
      "translation": [
        0.14525497,
        2.822876E-06,
        -1.58309933E-06
      ]
    },
    {
      "name": "R_Hand",
      "children": [
        69,
        71,
        73,
        75,
        77
      ],
      "translation": [
        0.358034283,
        -1.52587887E-07,
        -3.81469718E-08
      ],
      "rotation": [
        -0.01438916,
        5.163787E-06,
        -0.0003777072,
        0.9998964
      ]
    },
    {
      "name": "R_Index1",
      "children": [
        70
      ],
      "translation": [
        0.153835833,
        0.0216354374,
        0.0704303756
      ],
      "rotation": [
        -0.07892649,
        -0.09406091,
        0.07892647,
        0.9892895
      ]
    },
    {
      "name": "R_Index2",
      "translation": [
        0.0603884123,
        3.05175774E-07,
        -2.813339E-07
      ],
      "rotation": [
        -1.49011647E-08,
        0.0,
        0.0,
        1.0
      ]
    },
    {
      "name": "R_Middle1",
      "children": [
        72
      ],
      "translation": [
        0.16666694,
        0.0102407839,
        0.0309501644
      ],
      "rotation": [
        -0.0796872,
        -0.06279744,
        0.1221802,
        0.987308741
      ]
    },
    {
      "name": "R_Middle2",
      "translation": [
        0.06130371,
        3.05175774E-07,
        1.14440915E-07
      ]
    },
    {
      "name": "R_Pinky1",
      "children": [
        74
      ],
      "translation": [
        0.1332225,
        0.0221627038,
        -0.0428997
      ],
      "rotation": [
        0.116213739,
        0.118681736,
        0.106622815,
        0.980326831
      ]
    },
    {
      "name": "R_Pinky2",
      "translation": [
        0.0529010743,
        -3.814697E-07,
        3.33786E-08
      ],
      "rotation": [
        0.0,
        0.0,
        -1.48429553E-08,
        1.0
      ]
    },
    {
      "name": "R_Ring1",
      "children": [
        76
      ],
      "translation": [
        0.155653,
        0.0151550286,
        -0.00508113857
      ],
      "rotation": [
        -0.008187147,
        0.0516916141,
        0.156220064,
        0.986334741
      ]
    },
    {
      "name": "R_Ring2",
      "translation": [
        0.06167137,
        0.0,
        1.23977657E-07
      ]
    },
    {
      "name": "R_Thumb1",
      "children": [
        78
      ],
      "translation": [
        0.045718994,
        0.0187474824,
        0.04409812
      ],
      "rotation": [
        -0.4005195,
        -0.5305539,
        0.05880528,
        0.744740665
      ]
    },
    {
      "name": "R_Thumb2",
      "translation": [
        0.06288147,
        1.6021728E-06,
        -6.6041946E-07
      ],
      "rotation": [
        0.0,
        0.0,
        0.173648134,
        0.9848078
      ]
    },
    {
      "name": "R_ShurikenHouseing",
      "children": [
        80,
        81
      ],
      "translation": [
        0.246301264,
        1.44958494E-06,
        -9.918213E-07
      ]
    },
    {
      "name": "R_Arm_blade1",
      "translation": [
        -0.05143692,
        -0.0502738953,
        -0.01617421
      ]
    },
    {
      "name": "R_Hand_blade1",
      "children": [
        82
      ],
      "translation": [
        0.201448128,
        -0.00218627928,
        0.006233635
      ],
      "rotation": [
        0.00114182336,
        -0.02615204,
        0.0436044671,
        0.9987059
      ]
    },
    {
      "name": "R_Hand_blade2",
      "translation": [
        0.222972631,
        2.13623048E-06,
        -9.155273E-07
      ]
    },
    {
      "name": "R_ShoulderPad",
      "translation": [
        0.175799981,
        -0.113450013,
        -0.07548879
      ],
      "rotation": [
        -6.123234E-17,
        -1.0,
        -6.123234E-17,
        -6.123234E-17
      ]
    },
    {
      "name": "R_Shuriken",
      "translation": [
        0.232411131,
        -0.06438675,
        -0.23623468
      ],
      "rotation": [
        0.0,
        0.0436193869,
        0.0,
        0.999048233
      ]
    }
  ],
  "skins": [
    {
      "name": "transformZed",
      "inverseBindMatrices": 7,
      "skeleton": 7,
      "joints": [
        64,
        37,
        21,
        19,
        20,
        22,
        84,
        57,
        62,
        63,
        83,
        35,
        36,
        56,
        28,
        27,
        25,
        23,
        8,
        9,
        18,
        17,
        16,
        15,
        14,
        12,
        10,
        7,
        82,
        81,
        80,
        79,
        74,
        73,
        76,
        75,
        72,
        71,
        70,
        69,
        78,
        77,
        68,
        66,
        65,
        61,
        55,
        54,
        53,
        52,
        47,
        46,
        49,
        48,
        45,
        44,
        43,
        42,
        51,
        50,
        41,
        39,
        38,
        34,
        59,
        58,
        32,
        31,
        30
      ]
    }
  ]
}