{
  "asset": {
    "generator": "u3d-exporter",
    "version": "1.0.0"
  },
  "accessors": [
    {
      "name": "position@Cerberus00_Fixed",
      "bufferView": 0,
      "byteOffset": 0,
      "componentType": 5126,
      "count": 26378,
      "type": "VEC3",
      "min": [
        -0.125203162,
        -0.365488052,
        -0.187788039
      ],
      "max": [
        0.199931219,
        1.19557273,
        0.4720871
      ]
    },
    {
      "name": "normal@Cerberus00_Fixed",
      "bufferView": 0,
      "byteOffset": 12,
      "componentType": 5126,
      "count": 26378,
      "type": "VEC3"
    },
    {
      "name": "tangent@Cerberus00_Fixed",
      "bufferView": 0,
      "byteOffset": 24,
      "componentType": 5126,
      "count": 26378,
      "type": "VEC4"
    },
    {
      "name": "uv0@Cerberus00_Fixed",
      "bufferView": 0,
      "byteOffset": 40,
      "componentType": 5126,
      "count": 26378,
      "type": "VEC2"
    },
    {
      "name": "indices0@Cerberus00_Fixed",
      "bufferView": 1,
      "byteOffset": 0,
      "componentType": 5123,
      "count": 100629,
      "type": "SCALAR"
    }
  ],
  "buffers": [
    {
      "name": "Cerberus_LP",
      "uri": "a5c37fd97fce24fea81d95160e2f1caf.bin",
      "byteLength": 1467404
    }
  ],
  "bufferViews": [
    {
      "name": "vb@Cerberus00_Fixed",
      "buffer": 0,
      "byteOffset": 0,
      "byteLength": 1266144,
      "byteStride": 48,
      "target": 34962
    },
    {
      "name": "ib0@Cerberus00_Fixed",
      "buffer": 0,
      "byteOffset": 1266144,
      "byteLength": 201258,
      "target": 34963
    }
  ],
  "meshes": [
    {
      "name": "Cerberus00_Fixed",
      "primitives": [
        {
          "attributes": {
            "POSITION": 0,
            "NORMAL": 1,
            "TANGENT": 2,
            "TEXCOORD_0": 3
          },
          "indices": 4
        }
      ]
    }
  ],
  "nodes": [
    {
      "name": "Cerberus_LP",
      "rotation": [
        0.7071068,
        0.0,
        0.0,
        0.7071068
      ],
      "mesh": 0
    }
  ]
}