{
  "asset": {
    "generator": "u3d-exporter",
    "version": "1.0.0"
  },
  "accessors": [
    {
      "name": "position@Body",
      "bufferView": 0,
      "byteOffset": 0,
      "componentType": 5126,
      "count": 4071,
      "type": "VEC3",
      "min": [
        -0.5724075,
        -0.003282249,
        -0.365316451
      ],
      "max": [
        0.5723957,
        1.80544364,
        0.105951287
      ]
    },
    {
      "name": "normal@Body",
      "bufferView": 0,
      "byteOffset": 12,
      "componentType": 5126,
      "count": 4071,
      "type": "VEC3"
    },
    {
      "name": "tangent@Body",
      "bufferView": 0,
      "byteOffset": 24,
      "componentType": 5126,
      "count": 4071,
      "type": "VEC4"
    },
    {
      "name": "uv0@Body",
      "bufferView": 0,
      "byteOffset": 40,
      "componentType": 5126,
      "count": 4071,
      "type": "VEC2"
    },
    {
      "name": "joints@Body",
      "bufferView": 0,
      "byteOffset": 48,
      "componentType": 5123,
      "count": 4071,
      "type": "VEC4"
    },
    {
      "name": "weights@Body",
      "bufferView": 0,
      "byteOffset": 56,
      "componentType": 5126,
      "count": 4071,
      "type": "VEC4"
    },
    {
      "name": "indices0@Body",
      "bufferView": 1,
      "byteOffset": 0,
      "componentType": 5123,
      "count": 4320,
      "type": "SCALAR"
    },
    {
      "name": "bindposes@Body",
      "bufferView": 2,
      "byteOffset": 0,
      "componentType": 5126,
      "count": 22,
      "type": "MAT4"
    }
  ],
  "buffers": [
    {
      "name": "Neo",
      "uri": "6d44fefd267c24346bda3663edd0b081.bin",
      "byteLength": 303160
    }
  ],
  "bufferViews": [
    {
      "name": "vb@Body",
      "buffer": 0,
      "byteOffset": 0,
      "byteLength": 293112,
      "byteStride": 72,
      "target": 34962
    },
    {
      "name": "ib0@Body",
      "buffer": 0,
      "byteOffset": 293112,
      "byteLength": 8640,
      "target": 34963
    },
    {
      "name": "bp@Body",
      "buffer": 0,
      "byteOffset": 301752,
      "byteLength": 1408
    }
  ],
  "meshes": [
    {
      "name": "Body",
      "primitives": [
        {
          "attributes": {
            "POSITION": 0,
            "NORMAL": 1,
            "TANGENT": 2,
            "TEXCOORD_0": 3,
            "JOINTS_0": 4,
            "WEIGHTS_0": 5
          },
          "indices": 6
        }
      ]
    }
  ],
  "nodes": [
    {
      "name": "Neo",
      "children": [
        1
      ]
    },
    {
      "name": "Body",
      "mesh": 0,
      "skin": 0
    }
  ],
  "joints": [
    {
      "name": "Neo",
      "children": [
        1
      ]
    },
    {
      "name": "Neo_Reference",
      "children": [
        2
      ],
      "translation": [
        -5.91278058E-06,
        -0.003282249,
        -0.129682586
      ]
    },
    {
      "name": "Neo_Hips",
      "children": [
        3,
        7,
        11
      ],
      "translation": [
        2.38418565E-08,
        0.9469229,
        0.09803119
      ],
      "rotation": [
        -0.514734,
        0.4848184,
        -0.514734,
        0.4848184
      ]
    },
    {
      "name": "Neo_LeftUpLeg",
      "children": [
        4
      ],
      "translation": [
        0.0408931859,
        0.004726813,
        -0.09148609
      ],
      "rotation": [
        0.0,
        0.0,
        0.9995527,
        -0.0299072862
      ]
    },
    {
      "name": "Neo_LeftLeg",
      "children": [
        5
      ],
      "translation": [
        -0.4066052,
        -1.02887171E-07,
        -8.58306848E-08
      ],
      "scale": [
        1.00000024,
        1.00000024,
        1.00000024
      ]
    },
    {
      "name": "Neo_LeftFoot",
      "children": [
        6
      ],
      "translation": [
        -0.443071783,
        -1.11973009E-07,
        -8.583067E-08
      ],
      "rotation": [
        1.82907485E-07,
        -2.50190851E-07,
        0.590189338,
        0.8072649
      ]
    },
    {
      "name": "Neo_LeftToeBase",
      "translation": [
        -0.124450468,
        -9.436656E-10,
        -8.691233E-09
      ]
    },
    {
      "name": "Neo_RightUpLeg",
      "children": [
        8
      ],
      "translation": [
        0.0408931859,
        0.004726813,
        0.09148608
      ],
      "rotation": [
        9.03497444E-10,
        -3.02458929E-08,
        0.029982578,
        0.999550462
      ]
    },
    {
      "name": "Neo_RightLeg",
      "children": [
        9
      ],
      "translation": [
        0.4066052,
        -1.004606E-08,
        4.21499564E-08
      ],
      "rotation": [
        2.03226121E-13,
        4.154904E-08,
        -4.891235E-06,
        1.0
      ],
      "scale": [
        1.00000012,
        1.00000012,
        1.00000012
      ]
    },
    {
      "name": "Neo_RightFoot",
      "children": [
        10
      ],
      "translation": [
        0.443071842,
        -2.07132533E-08,
        4.81512252E-08
      ],
      "rotation": [
        2.35536791E-05,
        -3.22314663E-05,
        0.5901324,
        0.807306468
      ]
    },
    {
      "name": "Neo_RightToeBase",
      "translation": [
        0.124450468,
        1.44920087E-09,
        -7.638004E-09
      ]
    },
    {
      "name": "Neo_Spine",
      "children": [
        12
      ],
      "translation": [
        -0.0975585,
        8.049232E-11,
        2.16612745E-17
      ],
      "rotation": [
        0.0,
        0.0,
        0.0361133069,
        0.999347746
      ]
    },
    {
      "name": "Neo_Spine1",
      "children": [
        13
      ],
      "translation": [
        -0.171362892,
        1.13151186E-08,
        -5.106558E-09
      ],
      "rotation": [
        0.0,
        0.0,
        0.00145592622,
        0.9999989
      ]
    },
    {
      "name": "Neo_Spine2",
      "children": [
        14,
        18,
        20
      ],
      "translation": [
        -0.138781369,
        1.7048766E-08,
        3.41979031E-17
      ],
      "rotation": [
        0.0,
        0.0,
        0.00262285257,
        0.9999966
      ]
    },
    {
      "name": "Neo_LeftShoulder",
      "children": [
        15
      ],
      "translation": [
        -0.132791758,
        -0.01978109,
        -0.0889847
      ],
      "rotation": [
        0.370045483,
        -0.6025499,
        0.5948151,
        0.382354677
      ]
    },
    {
      "name": "Neo_LeftArm",
      "children": [
        16
      ],
      "translation": [
        -0.118700832,
        -1.01701893E-07,
        -8.34465E-09
      ],
      "rotation": [
        -0.6893825,
        0.157327145,
        -0.157327145,
        0.6893825
      ],
      "scale": [
        0.99999994,
        0.99999994,
        0.99999994
      ]
    },
    {
      "name": "Neo_LeftForeArm",
      "children": [
        17
      ],
      "translation": [
        -0.240979359,
        2.02655812E-08,
        -8.52651264E-16
      ],
      "scale": [
        0.99999994,
        0.99999994,
        0.99999994
      ]
    },
    {
      "name": "Neo_LeftHand",
      "translation": [
        -0.2732065,
        2.26497665E-08,
        0.0
      ],
      "scale": [
        0.99999994,
        0.99999994,
        0.99999994
      ]
    },
    {
      "name": "Neo_Neck",
      "children": [
        19
      ],
      "translation": [
        -0.186290741,
        5.41498535E-09,
        -5.820304E-13
      ],
      "rotation": [
        0.0,
        0.0,
        -0.1815168,
        0.9833879
      ],
      "scale": [
        1.00000024,
        1.00000012,
        1.00000024
      ]
    },
    {
      "name": "Neo_Head",
      "translation": [
        -0.132234231,
        -1.38134828E-08,
        1.38615688E-08
      ],
      "scale": [
        1.00000024,
        1.00000012,
        1.00000024
      ]
    },
    {
      "name": "Neo_RightShoulder",
      "children": [
        21
      ],
      "translation": [
        -0.132791758,
        -0.0197810959,
        0.0889847
      ],
      "rotation": [
        -0.6025499,
        -0.370045483,
        -0.382354677,
        0.5948151
      ]
    },
    {
      "name": "Neo_RightArm",
      "children": [
        22
      ],
      "translation": [
        0.118700832,
        1.01701893E-07,
        -2.38418574E-09
      ],
      "rotation": [
        -0.6893825,
        0.157327145,
        -0.157327145,
        0.6893825
      ],
      "scale": [
        1.00000024,
        1.00000012,
        1.00000012
      ]
    },
    {
      "name": "Neo_RightForeArm",
      "children": [
        23
      ],
      "translation": [
        0.240979239,
        -3.576278E-09,
        2.842171E-16
      ],
      "scale": [
        1.00000024,
        1.00000012,
        1.00000012
      ]
    },
    {
      "name": "Neo_RightHand",
      "translation": [
        0.2732064,
        -3.576278E-09,
        -1.3303687E-08
      ],
      "scale": [
        1.00000024,
        1.00000012,
        1.00000012
      ]
    }
  ],
  "skins": [
    {
      "name": "Body",
      "inverseBindMatrices": 7,
      "skeleton": 2,
      "joints": [
        2,
        3,
        4,
        5,
        6,
        7,
        8,
        9,
        10,
        11,
        12,
        13,
        14,
        15,
        16,
        17,
        20,
        21,
        22,
        23,
        18,
        19
      ]
    }
  ]
}