{
  "asset": {
    "generator": "u3d-exporter",
    "version": "1.0.0"
  },
  "accessors": [
    {
      "name": "position@ActionField",
      "bufferView": 0,
      "byteOffset": 0,
      "componentType": 5126,
      "count": 24,
      "type": "VEC3",
      "min": [
        -0.199999973,
        -0.199999973,
        -0.199999973
      ],
      "max": [
        0.199999973,
        0.199999973,
        0.199999973
      ]
    },
    {
      "name": "normal@ActionField",
      "bufferView": 0,
      "byteOffset": 12,
      "componentType": 5126,
      "count": 24,
      "type": "VEC3",
      "min": [
        -1.0,
        -1.0,
        -1.0
      ],
      "max": [
        1.0,
        1.0,
        1.0
      ]
    },
    {
      "name": "tangent@ActionField",
      "bufferView": 0,
      "byteOffset": 24,
      "componentType": 5126,
      "count": 24,
      "type": "VEC4",
      "min": [
        -1.0,
        0.0,
        0.0,
        -1.0
      ],
      "max": [
        0.0,
        1.0,
        0.0,
        1.0
      ]
    },
    {
      "name": "uv0@ActionField",
      "bufferView": 0,
      "byteOffset": 40,
      "componentType": 5126,
      "count": 24,
      "type": "VEC2"
    },
    {
      "name": "indices0@ActionField",
      "bufferView": 1,
      "byteOffset": 0,
      "componentType": 5123,
      "count": 36,
      "type": "SCALAR"
    }
  ],
  "buffers": [
    {
      "name": "Block_1x1x1",
      "uri": "2751bfe6837879649bc54e1823cdf856.bin",
      "byteLength": 1224
    }
  ],
  "bufferViews": [
    {
      "name": "vb@ActionField",
      "buffer": 0,
      "byteOffset": 0,
      "byteLength": 1152,
      "byteStride": 48,
      "target": 34962
    },
    {
      "name": "ib0@ActionField",
      "buffer": 0,
      "byteOffset": 1152,
      "byteLength": 72,
      "target": 34963
    }
  ],
  "meshes": [
    {
      "name": "ActionField",
      "primitives": [
        {
          "attributes": {
            "POSITION": 0,
            "NORMAL": 1,
            "TANGENT": 2,
            "TEXCOORD_0": 3
          },
          "indices": 4
        }
      ]
    }
  ],
  "nodes": [
    {
      "name": "Block_1x1x1",
      "rotation": [
        0.7071068,
        0.0,
        0.0,
        0.7071067
      ],
      "mesh": 0
    }
  ]
}