{
  "asset": {
    "generator": "u3d-exporter",
    "version": "1.0.0"
  },
  "accessors": [
    {
      "name": "position@SM_Wall_2x4",
      "bufferView": 0,
      "byteOffset": 0,
      "componentType": 5126,
      "count": 24,
      "type": "VEC3",
      "min": [
        -2.0,
        -0.05,
        -2.0
      ],
      "max": [
        2.0,
        0.05,
        0.0
      ]
    },
    {
      "name": "normal@SM_Wall_2x4",
      "bufferView": 0,
      "byteOffset": 12,
      "componentType": 5126,
      "count": 24,
      "type": "VEC3",
      "min": [
        -1.0,
        -1.0,
        -1.0
      ],
      "max": [
        1.0,
        1.0,
        1.0
      ]
    },
    {
      "name": "tangent@SM_Wall_2x4",
      "bufferView": 0,
      "byteOffset": 24,
      "componentType": 5126,
      "count": 24,
      "type": "VEC4",
      "min": [
        -1.0,
        -1.0,
        0.0,
        -1.0
      ],
      "max": [
        1.0,
        1.0,
        0.0,
        0.0
      ]
    },
    {
      "name": "uv0@SM_Wall_2x4",
      "bufferView": 0,
      "byteOffset": 40,
      "componentType": 5126,
      "count": 24,
      "type": "VEC2"
    },
    {
      "name": "indices0@SM_Wall_2x4",
      "bufferView": 1,
      "byteOffset": 0,
      "componentType": 5123,
      "count": 36,
      "type": "SCALAR"
    }
  ],
  "buffers": [
    {
      "name": "Wall_2x4",
      "uri": "8d155f6951d1e46dc9fd17ae06aa9508.bin",
      "byteLength": 1224
    }
  ],
  "bufferViews": [
    {
      "name": "vb@SM_Wall_2x4",
      "buffer": 0,
      "byteOffset": 0,
      "byteLength": 1152,
      "byteStride": 48,
      "target": 34962
    },
    {
      "name": "ib0@SM_Wall_2x4",
      "buffer": 0,
      "byteOffset": 1152,
      "byteLength": 72,
      "target": 34963
    }
  ],
  "meshes": [
    {
      "name": "SM_Wall_2x4",
      "primitives": [
        {
          "attributes": {
            "POSITION": 0,
            "NORMAL": 1,
            "TANGENT": 2,
            "TEXCOORD_0": 3
          },
          "indices": 4
        }
      ]
    }
  ],
  "nodes": [
    {
      "name": "Wall_2x4",
      "rotation": [
        0.7071068,
        0.0,
        0.0,
        0.7071068
      ],
      "mesh": 0
    }
  ]
}