{
  "asset": {
    "generator": "u3d-exporter",
    "version": "1.0.0"
  },
  "accessors": [
    {
      "name": "position@SM_Block_2x2x1",
      "bufferView": 0,
      "byteOffset": 0,
      "componentType": 5126,
      "count": 42,
      "type": "VEC3",
      "min": [
        -1.0,
        -1.0,
        -1.0
      ],
      "max": [
        1.0,
        1.0,
        0.0
      ]
    },
    {
      "name": "normal@SM_Block_2x2x1",
      "bufferView": 0,
      "byteOffset": 12,
      "componentType": 5126,
      "count": 42,
      "type": "VEC3",
      "min": [
        -1.0,
        -1.0,
        -1.0
      ],
      "max": [
        1.0,
        1.0,
        1.0
      ]
    },
    {
      "name": "tangent@SM_Block_2x2x1",
      "bufferView": 0,
      "byteOffset": 24,
      "componentType": 5126,
      "count": 42,
      "type": "VEC4",
      "min": [
        -1.0,
        -1.0,
        0.0,
        -1.0
      ],
      "max": [
        1.0,
        1.0,
        0.0,
        0.0
      ]
    },
    {
      "name": "uv0@SM_Block_2x2x1",
      "bufferView": 0,
      "byteOffset": 40,
      "componentType": 5126,
      "count": 42,
      "type": "VEC2"
    },
    {
      "name": "indices0@SM_Block_2x2x1",
      "bufferView": 1,
      "byteOffset": 0,
      "componentType": 5123,
      "count": 96,
      "type": "SCALAR"
    }
  ],
  "buffers": [
    {
      "name": "Block_2x2x1",
      "uri": "bf5f3073f12204fdf8334b2226044345.bin",
      "byteLength": 2208
    }
  ],
  "bufferViews": [
    {
      "name": "vb@SM_Block_2x2x1",
      "buffer": 0,
      "byteOffset": 0,
      "byteLength": 2016,
      "byteStride": 48,
      "target": 34962
    },
    {
      "name": "ib0@SM_Block_2x2x1",
      "buffer": 0,
      "byteOffset": 2016,
      "byteLength": 192,
      "target": 34963
    }
  ],
  "meshes": [
    {
      "name": "SM_Block_2x2x1",
      "primitives": [
        {
          "attributes": {
            "POSITION": 0,
            "NORMAL": 1,
            "TANGENT": 2,
            "TEXCOORD_0": 3
          },
          "indices": 4
        }
      ]
    }
  ],
  "nodes": [
    {
      "name": "Block_2x2x1",
      "rotation": [
        0.7071068,
        0.0,
        0.0,
        0.7071068
      ],
      "mesh": 0
    }
  ]
}