{
  "asset": {
    "generator": "u3d-exporter",
    "version": "1.0.0"
  },
  "accessors": [
    {
      "name": "position@SM_Floor_20",
      "bufferView": 0,
      "byteOffset": 0,
      "componentType": 5126,
      "count": 441,
      "type": "VEC3",
      "min": [
        -10.0,
        -10.0,
        0.0
      ],
      "max": [
        10.0,
        10.0,
        0.0
      ]
    },
    {
      "name": "normal@SM_Floor_20",
      "bufferView": 0,
      "byteOffset": 12,
      "componentType": 5126,
      "count": 441,
      "type": "VEC3",
      "min": [
        0.0,
        0.0,
        -1.0
      ],
      "max": [
        0.0,
        0.0,
        0.0
      ]
    },
    {
      "name": "tangent@SM_Floor_20",
      "bufferView": 0,
      "byteOffset": 24,
      "componentType": 5126,
      "count": 441,
      "type": "VEC4",
      "min": [
        -1.0,
        0.0,
        0.0,
        -1.0
      ],
      "max": [
        0.0,
        0.0,
        0.0,
        0.0
      ]
    },
    {
      "name": "uv0@SM_Floor_20",
      "bufferView": 0,
      "byteOffset": 40,
      "componentType": 5126,
      "count": 441,
      "type": "VEC2"
    },
    {
      "name": "indices0@SM_Floor_20",
      "bufferView": 1,
      "byteOffset": 0,
      "componentType": 5123,
      "count": 2400,
      "type": "SCALAR"
    }
  ],
  "buffers": [
    {
      "name": "Floor_20",
      "uri": "f75051938c307468eb1105b09008a72a.bin",
      "byteLength": 25968
    }
  ],
  "bufferViews": [
    {
      "name": "vb@SM_Floor_20",
      "buffer": 0,
      "byteOffset": 0,
      "byteLength": 21168,
      "byteStride": 48,
      "target": 34962
    },
    {
      "name": "ib0@SM_Floor_20",
      "buffer": 0,
      "byteOffset": 21168,
      "byteLength": 4800,
      "target": 34963
    }
  ],
  "meshes": [
    {
      "name": "SM_Floor_20",
      "primitives": [
        {
          "attributes": {
            "POSITION": 0,
            "NORMAL": 1,
            "TANGENT": 2,
            "TEXCOORD_0": 3
          },
          "indices": 4
        }
      ]
    }
  ],
  "nodes": [
    {
      "name": "Floor_20",
      "rotation": [
        0.7071068,
        0.0,
        0.0,
        0.7071068
      ],
      "mesh": 0
    }
  ]
}